<mxfile host="app.diagrams.net" modified="2023-10-04T07:25:24.916Z" agent="Mozilla/5.0 (Windows NT 10.0; Win64; x64) AppleWebKit/537.36 (KHTML, like Gecko) Chrome/117.0.0.0 Safari/537.36" etag="bpFcN6BoZcd-sydTPUbi" version="22.0.2" type="github">
  <diagram name="Page-1" id="sa4Ppc4lMIwVgF4WDW9f">
    <mxGraphModel dx="2074" dy="1190" grid="1" gridSize="10" guides="1" tooltips="1" connect="1" arrows="1" fold="1" page="1" pageScale="1" pageWidth="850" pageHeight="1100" math="0" shadow="0">
      <root>
        <mxCell id="0" />
        <mxCell id="1" parent="0" />
        <mxCell id="pU8xh4jpbojx05RpeHCp-3" value="" style="edgeStyle=orthogonalEdgeStyle;rounded=0;orthogonalLoop=1;jettySize=auto;html=1;" parent="1" source="pU8xh4jpbojx05RpeHCp-1" target="pU8xh4jpbojx05RpeHCp-2" edge="1">
          <mxGeometry relative="1" as="geometry" />
        </mxCell>
        <mxCell id="pU8xh4jpbojx05RpeHCp-1" value="" style="whiteSpace=wrap;html=1;aspect=fixed;" parent="1" vertex="1">
          <mxGeometry x="380" y="270" width="80" height="80" as="geometry" />
        </mxCell>
        <mxCell id="pU8xh4jpbojx05RpeHCp-5" value="" style="edgeStyle=orthogonalEdgeStyle;rounded=0;orthogonalLoop=1;jettySize=auto;html=1;" parent="1" source="pU8xh4jpbojx05RpeHCp-2" target="pU8xh4jpbojx05RpeHCp-4" edge="1">
          <mxGeometry relative="1" as="geometry" />
        </mxCell>
        <mxCell id="pU8xh4jpbojx05RpeHCp-2" value="test" style="whiteSpace=wrap;html=1;aspect=fixed;" parent="1" vertex="1">
          <mxGeometry x="540" y="270" width="80" height="80" as="geometry" />
        </mxCell>
        <mxCell id="pU8xh4jpbojx05RpeHCp-7" value="" style="edgeStyle=orthogonalEdgeStyle;rounded=0;orthogonalLoop=1;jettySize=auto;html=1;" parent="1" source="pU8xh4jpbojx05RpeHCp-4" target="pU8xh4jpbojx05RpeHCp-6" edge="1">
          <mxGeometry relative="1" as="geometry" />
        </mxCell>
        <mxCell id="pU8xh4jpbojx05RpeHCp-4" value="zmiana1" style="whiteSpace=wrap;html=1;" parent="1" vertex="1">
          <mxGeometry x="680" y="280" width="120" height="60" as="geometry" />
        </mxCell>
        <mxCell id="pU8xh4jpbojx05RpeHCp-9" value="" style="edgeStyle=orthogonalEdgeStyle;rounded=0;orthogonalLoop=1;jettySize=auto;html=1;" parent="1" source="pU8xh4jpbojx05RpeHCp-6" target="pU8xh4jpbojx05RpeHCp-8" edge="1">
          <mxGeometry relative="1" as="geometry" />
        </mxCell>
        <mxCell id="pU8xh4jpbojx05RpeHCp-6" value="" style="rhombus;whiteSpace=wrap;html=1;" parent="1" vertex="1">
          <mxGeometry x="700" y="410" width="80" height="80" as="geometry" />
        </mxCell>
        <mxCell id="pU8xh4jpbojx05RpeHCp-8" value="" style="rounded=1;whiteSpace=wrap;html=1;" parent="1" vertex="1">
          <mxGeometry x="680" y="580" width="120" height="60" as="geometry" />
        </mxCell>
      </root>
    </mxGraphModel>
  </diagram>
</mxfile>
